# xmcd CD database file
#
# Track frame offsets:
#	150
#	17730
#	39410
#
# Disc length: 834 seconds
#
# Revision: 3
# Processed by: cddbd v1.5.1PL0 Copyright (c) Steve Scherf et al.
# Submitted via: CDex 1.51
#
DISCID=19034003
DTITLE=Madeth grey'll - 十字架の結末〜第二の悲劇〜
DYEAR=1999
DGENRE=
TTITLE0=狂死曲
TTITLE1=白昼夢の惨劇
TTITLE2=missantroop
EXTD=YEAR: 1999
EXTT0=
EXTT1=
EXTT2=
PLAYORDER=
